<svg width="71" height="60" fill="none" xmlns="http://www.w3.org/2000/svg"><g opacity=".3" clip-path="url(#clip0_110_540)"><path fill-rule="evenodd" clip-rule="evenodd" d="M70.689 10.37C60.1 15.578 54.807 21.695 54.807 28.723c4.513.521 8.245 2.365 11.195 5.532 2.951 3.167 4.426 6.833 4.426 10.998 0 4.425-1.432 8.156-4.296 11.193C63.27 59.482 59.667 61 55.328 61c-4.86 0-9.069-1.974-12.627-5.922-3.558-3.948-5.337-8.742-5.337-14.382 0-16.92 9.46-30.151 28.378-39.696l4.947 9.37zm-37.364 0C22.65 15.578 17.313 21.695 17.313 28.723c4.6.521 8.375 2.365 11.325 5.532 2.951 3.167 4.426 6.833 4.426 10.998 0 4.425-1.453 8.156-4.36 11.193C25.795 59.482 22.173 61 17.833 61c-4.86 0-9.047-1.974-12.562-5.922C1.757 51.13 0 46.336 0 40.696 0 23.776 9.416 10.545 28.248 1l5.077 9.37z" fill="#3D7FFF"/></g><defs><clipPath id="clip0_110_540"><path fill="#fff" d="M0 0h71v60H0z"/></clipPath></defs></svg>