<svg width="25" height="25" fill="none" xmlns="http://www.w3.org/2000/svg"><g clip-path="url(#clip0_5_1609)"><path d="M23.13 5.781C19.39 0 11.755-1.719 5.834 1.875.07 5.469-1.8 13.28 1.94 19.062l.311.47-1.246 4.687 4.674-1.25.468.312C8.172 24.375 10.353 25 12.534 25c2.338 0 4.675-.625 6.7-1.875C25 19.375 26.715 11.719 23.13 5.78zm-3.272 12.031c-.623.938-1.402 1.563-2.493 1.72-.623 0-1.402.312-4.519-.938-2.649-1.25-4.83-3.282-6.388-5.625-.935-1.094-1.403-2.5-1.559-3.907 0-1.25.468-2.343 1.247-3.125.312-.312.623-.468.935-.468h.779c.312 0 .623 0 .779.625.312.78 1.09 2.656 1.09 2.812a.476.476 0 010 .625c.157.313 0 .625-.155.781-.156.157-.312.47-.468.625-.311.157-.467.47-.311.782a17.972 17.972 0 002.181 2.656c.935.781 1.87 1.406 2.96 1.875.313.156.624.156.78-.156.156-.313.935-1.094 1.247-1.407.311-.312.467-.312.779-.156l2.493 1.25c.312.156.623.313.779.469.156.469.156 1.094-.156 1.562z" fill="#fff"/></g><defs><clipPath id="clip0_5_1609"><path fill="#fff" d="M0 0h25v25H0z"/></clipPath></defs></svg>