<svg width="30" height="30" fill="none" xmlns="http://www.w3.org/2000/svg"><path d="M25.735 19.819c-1.572 0-3.092-.256-4.51-.716a1.248 1.248 0 00-1.291.307l-.025.031c-1.16 1.456-3.198 1.949-4.71.864a19.881 19.881 0 01-4.93-5.096c-.753-1.137-.421-2.625.617-3.509l.73-.621c.598-.69.297-1.531.233-1.785-.365-1.46-.365-2.445-.365-4.016 0-.73-.852-1.278-1.542-1.278H5.52C4.83 4 4 4.307 4 5.265 4 17.135 13.877 27 25.735 27c.907 0 1.265-.805 1.265-1.508v-4.408c0-.69-.575-1.265-1.265-1.265z" fill="#fff"/></svg>