<svg width="132" height="129" fill="none" xmlns="http://www.w3.org/2000/svg"><g filter="url(#filter0_d_301_675)"><path fill-rule="evenodd" clip-rule="evenodd" d="M61.998.311c-.258.165.601.482 2.04.754 3.189.603 9.314 2.65 12.933 4.322 9.227 4.263 17.4 12.582 21.278 21.655 4.394 10.285 4.755 19.97 1.231 33.083-1.798 6.692-3.35 9.873-8.07 16.533-3.383 4.776-5.57 9.133-6.122 12.199-.6 3.324-.48 8.003.364 14.345 1.282 9.632 3.579 22.835 3.914 22.499.063-.063.609-2.449 1.214-5.305 1.291-6.09 2.029-8.202 3.266-9.345.888-.821 1.064-.835 10.088-.814 8.377.02 9.363-.045 11.214-.738 3.385-1.266 6.273-4.858 6.273-7.8 0-.616-.501-2.685-1.113-4.596-1.595-4.978-1.51-5.715.981-8.5.684-.767 1.245-1.638 1.245-1.936 0-.298-.501-1.113-1.113-1.81-.613-.698-1.113-1.407-1.113-1.576 0-.17.704-1.026 1.565-1.904l1.566-1.595-1.173-2.315c-1.542-3.042-2.246-5.671-1.734-6.483.212-.337 1.592-.98 3.066-1.43 3.304-1.01 5.346-2.32 5.974-3.836.918-2.218-.706-4.978-9.063-15.398-6.444-8.035-6.691-8.43-6.178-9.903.636-1.826.488-6.218-.316-9.364-3.838-15.008-16.614-26.56-32.849-29.704C75.651.24 63.16-.428 61.998.31z" fill="url(#paint0_linear_301_675)"/></g><path d="M5.733 44.047c-.658 0-1.28-.093-1.867-.28a4.265 4.265 0 01-1.521-.853 4.17 4.17 0 01-1.04-1.494c-.25-.605-.374-1.33-.374-2.175v-.267c0-.8.124-1.49.373-2.067a4.088 4.088 0 011.04-1.454c.437-.392.944-.68 1.522-.867a6.125 6.125 0 011.867-.28c.658 0 1.276.093 1.854.28a4.147 4.147 0 011.534.867c.436.382.779.867 1.028 1.454.258.578.387 1.267.387 2.067v.267c0 .827-.13 1.543-.387 2.148A4.162 4.162 0 019.12 42.9c-.435.392-.947.68-1.534.867a5.998 5.998 0 01-1.854.28zm0-2.854c.374 0 .667-.147.88-.44.214-.303.32-.805.32-1.508v-.267c0-.64-.106-1.102-.32-1.387-.213-.284-.506-.427-.88-.427-.373 0-.667.143-.88.427-.214.285-.32.747-.32 1.387v.267c0 .703.106 1.205.32 1.508.213.293.507.44.88.44zm10.069 2.855c-.668 0-1.29-.085-1.868-.254a3.982 3.982 0 01-1.507-.84c-.418-.383-.752-.876-1-1.481-.241-.614-.361-1.356-.361-2.228v-.267c0-.827.124-1.534.373-2.12.25-.587.587-1.068 1.014-1.441a4.12 4.12 0 011.508-.84 6.225 6.225 0 011.84-.267c.587 0 1.143.07 1.668.213.534.133 1.005.36 1.414.68.409.312.738.716.987 1.214.25.498.383 1.107.4 1.828h-3.468c-.044-.427-.165-.712-.36-.854a1.025 1.025 0 00-1.067-.133.968.968 0 00-.36.306 1.637 1.637 0 00-.254.56 3.332 3.332 0 00-.093.854v.267c0 .676.102 1.17.306 1.48.214.312.49.468.828.468.24 0 .453-.071.64-.214.195-.142.316-.43.36-.867h3.468c-.017.738-.15 1.361-.4 1.868a3.29 3.29 0 01-.974 1.214c-.4.302-.867.52-1.4.653a6.94 6.94 0 01-1.694.2zm9.732 0c-.658 0-1.28-.094-1.867-.28a4.266 4.266 0 01-1.521-.854 4.171 4.171 0 01-1.04-1.494c-.25-.605-.374-1.33-.374-2.175v-.267c0-.8.124-1.49.373-2.067a4.09 4.09 0 011.04-1.454c.437-.392.944-.68 1.522-.867a6.126 6.126 0 011.867-.28c.658 0 1.276.093 1.854.28a4.148 4.148 0 011.534.867c.436.382.779.867 1.028 1.454.258.578.387 1.267.387 2.067v.267c0 .827-.13 1.543-.387 2.148a4.163 4.163 0 01-1.027 1.507c-.436.392-.948.68-1.535.867a5.998 5.998 0 01-1.854.28zm0-2.855c.374 0 .667-.147.88-.44.214-.303.32-.805.32-1.508v-.267c0-.64-.106-1.102-.32-1.387-.213-.284-.506-.427-.88-.427-.373 0-.667.143-.88.427-.214.285-.32.747-.32 1.387v.267c0 .703.106 1.205.32 1.508.213.293.507.44.88.44zm9.868 2.855c-.818 0-1.516-.098-2.094-.294-.57-.204-1.036-.485-1.4-.84a3.267 3.267 0 01-.788-1.281 5.122 5.122 0 01-.253-1.654h3.201c0 .178.01.364.027.56.018.187.067.36.147.52.089.152.222.28.4.387.187.098.44.147.76.147.285 0 .512-.053.68-.16.17-.116.254-.302.254-.56a.862.862 0 00-.053-.32.422.422 0 00-.2-.214.96.96 0 00-.387-.107 4.05 4.05 0 00-.627-.04h-.534v-2.16h.534c.364 0 .622-.05.774-.147.15-.107.226-.276.226-.507 0-.41-.244-.614-.733-.614-.267 0-.48.04-.64.12a.945.945 0 00-.374.32c-.08.134-.134.285-.16.454a4.965 4.965 0 00-.027.52h-3.201c0-1.316.378-2.29 1.134-2.921.755-.632 1.845-.947 3.268-.947.676 0 1.28.053 1.814.16.542.106 1 .27 1.374.493.373.223.658.503.854.84.195.339.293.739.293 1.201 0 .48-.129.894-.387 1.24-.258.339-.613.583-1.067.734 1.147.267 1.72 1.01 1.72 2.228 0 .88-.39 1.574-1.173 2.081-.774.507-1.894.76-3.362.76zm5.333-9.538h3.521v3.188h2.028V34.51h3.522v9.337h-3.522v-3.321h-2.028v3.321h-3.521V34.51zm15.644 8.084H53.95l-.334 1.253h-3.254l3.308-9.337h3.522l3.308 9.337h-3.789l-.333-1.254zm-1.748-2.562h1.054l-.52-2.32-.534 2.32zm6.426-5.522h3.521v3.188h2.028V34.51h3.522v9.337h-3.522v-3.321h-2.028v3.321h-3.521V34.51zm10.135 0h3.521v4.002l2.295-4.002h3.255v9.337H76.74v-4.002l-2.294 4.002h-3.255V34.51zm10.135 0h7.336v2.56h-3.815v.961h3.415v2.161h-3.415v1.094h3.815v2.561h-7.336V34.51zM50.16 59.407c-.676 0-1.29-.093-1.841-.28a4.1 4.1 0 01-1.428-.814 3.772 3.772 0 01-.92-1.294 4.365 4.365 0 01-.32-1.707v-.267c0-.631.107-1.2.32-1.707.222-.507.53-.934.92-1.28a4.09 4.09 0 011.428-.815 5.474 5.474 0 011.84-.293v-.707h3.522v.707c.676 0 1.29.098 1.841.293a3.96 3.96 0 011.414.814c.4.347.707.774.92 1.28.223.508.334 1.077.334 1.708v.267c0 .631-.111 1.2-.333 1.707a3.55 3.55 0 01-.92 1.294 3.962 3.962 0 01-1.415.814 5.715 5.715 0 01-1.84.28v.707H50.16v-.707zm4.429-4.362c0-.302-.032-.542-.094-.72-.053-.187-.129-.325-.227-.414a.592.592 0 00-.32-.187 1.454 1.454 0 00-.4-.053v3.015c.169 0 .316-.013.44-.04a.726.726 0 00.334-.187.948.948 0 00.2-.413 3.27 3.27 0 00.067-.734v-.267zm-5.336.267c0 .302.022.547.066.734.045.178.107.315.187.413a.727.727 0 00.32.187c.134.027.29.04.467.04V53.67c-.16 0-.302.018-.427.053a.662.662 0 00-.333.187c-.09.09-.16.227-.214.414a3.095 3.095 0 00-.066.72v.267zm14.203 4.736c-.658 0-1.28-.094-1.868-.28a4.266 4.266 0 01-1.52-.854 4.171 4.171 0 01-1.041-1.494c-.25-.605-.374-1.33-.374-2.175v-.267c0-.8.125-1.49.374-2.067a4.09 4.09 0 011.04-1.454 4.16 4.16 0 011.521-.867 6.126 6.126 0 011.868-.28c.658 0 1.276.093 1.854.28a4.147 4.147 0 011.534.867c.436.382.778.867 1.027 1.454.258.578.387 1.267.387 2.067v.267c0 .827-.129 1.543-.387 2.148a4.162 4.162 0 01-1.027 1.507c-.436.392-.947.68-1.534.867a5.998 5.998 0 01-1.854.28zm0-2.855c.373 0 .667-.147.88-.44.213-.303.32-.805.32-1.508v-.267c0-.64-.107-1.102-.32-1.387-.213-.284-.507-.427-.88-.427-.374 0-.667.143-.88.427-.214.285-.32.747-.32 1.387v.267c0 .703.106 1.205.32 1.508.213.293.506.44.88.44zm5.6-6.683h3.52v3.188h2.029V50.51h3.521v9.337h-3.522v-3.321h-2.027v3.321h-3.522V50.51zm9.734 6.51h.8a8.641 8.641 0 00.534-1.721c.133-.614.2-1.321.2-2.121V50.51h7.537v6.51h.934v4.562h-2.988v-1.735h-4.029v1.735H78.79v-4.563zm5.55 0v-3.682h-1.028v.974c0 .48-.031.96-.093 1.44a6.852 6.852 0 01-.28 1.267h1.4z" fill="#3D7FFF"/><defs><linearGradient id="paint0_linear_301_675" x1="58.855" y1="-.278" x2="58.855" y2="125.707" gradientUnits="userSpaceOnUse"><stop stop-color="#3E81EB"/><stop offset=".982" stop-color="#B1CCFF"/></linearGradient><filter id="filter0_d_301_675" x="60.471" y="0" width="71.012" height="128.671" filterUnits="userSpaceOnUse" color-interpolation-filters="sRGB"><feFlood flood-opacity="0" result="BackgroundImageFix"/><feColorMatrix in="SourceAlpha" values="0 0 0 0 0 0 0 0 0 0 0 0 0 0 0 0 0 0 127 0" result="hardAlpha"/><feOffset dy="1.482"/><feGaussianBlur stdDeviation=".741"/><feComposite in2="hardAlpha" operator="out"/><feColorMatrix values="0 0 0 0 0 0 0 0 0 0 0 0 0 0 0 0 0 0 0.25 0"/><feBlend in2="BackgroundImageFix" result="effect1_dropShadow_301_675"/><feBlend in="SourceGraphic" in2="effect1_dropShadow_301_675" result="shape"/></filter></defs></svg>