<svg width="71" height="60" viewBox="0 0 71 60" fill="none" xmlns="http://www.w3.org/2000/svg">
<g opacity="0.3" clip-path="url(#clip0_110_540)">
<path fill-rule="evenodd" clip-rule="evenodd" d="M70.6886 10.3709C60.1011 15.577 54.8074 21.6941 54.8074 28.7223C59.3201 29.243 63.0517 31.0868 66.0024 34.2538C68.953 37.4208 70.4283 41.0867 70.4283 45.2516C70.4283 49.6768 68.9964 53.4078 66.1325 56.4447C63.2687 59.4816 59.6672 61 55.3281 61C50.4682 61 46.2593 59.026 42.7011 55.0781C39.143 51.1301 37.364 46.3363 37.364 40.6963C37.364 23.7765 46.8232 10.5445 65.742 1L70.6886 10.3709ZM33.3246 10.3709C22.6503 15.577 17.3132 21.6941 17.3132 28.7223C21.9127 29.243 25.6877 31.0868 28.6384 34.2538C31.589 37.4208 33.0643 41.0867 33.0643 45.2516C33.0643 49.6768 31.6107 53.4078 28.7034 56.4447C25.7962 59.4816 22.1731 61 17.8339 61C12.974 61 8.78679 59.026 5.27206 55.0781C1.75734 51.1301 0 46.3363 0 40.6963C0 23.7765 9.41585 10.5445 28.2478 1L33.3246 10.3709Z" fill="#3D7FFF"/>
</g>
<defs>
<clipPath id="clip0_110_540">
<rect width="71" height="60" fill="white"/>
</clipPath>
</defs>
</svg>
