<svg width="25" height="25" viewBox="0 0 25 25" fill="none" xmlns="http://www.w3.org/2000/svg">
<g clip-path="url(#clip0_5_1609)">
<path d="M23.1303 5.78106C19.3906 -0.000191107 11.7554 -1.71894 5.83426 1.87481C0.0688931 5.46856 -1.80095 13.2811 1.93874 19.0623L2.25038 19.5311L1.00382 24.2186L5.67844 22.9686L6.1459 23.2811C8.17157 24.3748 10.3531 24.9998 12.5345 24.9998C14.8719 24.9998 17.2092 24.3748 19.2348 23.1248C25.0002 19.3748 26.7142 11.7186 23.1303 5.78106ZM19.8581 17.8123C19.2348 18.7498 18.4557 19.3748 17.365 19.5311C16.7417 19.5311 15.9626 19.8436 12.8462 18.5936C10.1972 17.3436 8.01575 15.3123 6.45754 12.9686C5.52261 11.8748 5.05515 10.4686 4.89933 9.06231C4.89933 7.81231 5.36679 6.71856 6.1459 5.93731C6.45754 5.62481 6.76918 5.46856 7.08082 5.46856H7.85992C8.17157 5.46856 8.48321 5.46856 8.63903 6.09356C8.95067 6.87481 9.72977 8.74981 9.72977 8.90606C9.88559 9.06231 9.88559 9.37481 9.72977 9.53106C9.88559 9.84356 9.72977 10.1561 9.57395 10.3123C9.41813 10.4686 9.26231 10.7811 9.10649 10.9373C8.79485 11.0936 8.63903 11.4061 8.79485 11.7186C9.41813 12.6561 10.1972 13.5936 10.9763 14.3748C11.9113 15.1561 12.8462 15.7811 13.9369 16.2498C14.2486 16.4061 14.5602 16.4061 14.716 16.0936C14.8719 15.7811 15.651 14.9998 15.9626 14.6873C16.2742 14.3748 16.4301 14.3748 16.7417 14.5311L19.2348 15.7811C19.5465 15.9373 19.8581 16.0936 20.0139 16.2498C20.1698 16.7186 20.1698 17.3436 19.8581 17.8123Z" fill="white"/>
</g>
<defs>
<clipPath id="clip0_5_1609">
<rect width="25" height="25" fill="white"/>
</clipPath>
</defs>
</svg>
