<svg width="30" height="30" viewBox="0 0 30 30" fill="none" xmlns="http://www.w3.org/2000/svg">
<path d="M25.735 19.8189C24.1633 19.8189 22.6428 19.5633 21.2244 19.1033C21.0022 19.028 20.7633 19.0168 20.5351 19.0711C20.3068 19.1253 20.0985 19.2428 19.9339 19.41L19.909 19.4413C18.749 20.8967 16.711 21.39 15.1991 20.3046C13.2968 18.9389 11.575 17.1794 10.2695 15.2086C9.51648 14.0719 9.84775 12.5838 10.886 11.7L11.6156 11.0789C12.2143 10.3889 11.9127 9.54752 11.8492 9.29365C11.4841 7.83333 11.4841 6.84944 11.4841 5.27778C11.4841 4.54762 10.6317 4 9.94167 4H5.52056C4.83056 4 4 4.30667 4 5.265C4 17.1356 13.8772 27 25.735 27C26.6422 27 27 26.195 27 25.4922V21.0839C27 20.3939 26.425 19.8189 25.735 19.8189Z" fill="white"/>
</svg>
