<svg width="28" height="28" viewBox="0 0 28 28" fill="none" xmlns="http://www.w3.org/2000/svg">
<path d="M26.46 19.2578C24.5467 19.2578 22.6956 18.9467 20.9689 18.3867C20.6984 18.295 20.4075 18.2814 20.1296 18.3474C19.8518 18.4134 19.5981 18.5564 19.3978 18.76L18.9368 19.3385C17.7768 20.794 15.7444 21.2839 14.201 20.2438C11.5238 18.4396 9.10176 15.9897 7.35939 13.2227C6.63287 12.0689 6.96164 10.5838 7.99987 9.69996L9.27111 8.61778C10 7.77778 9.63282 6.7535 9.55556 6.44444C9.11111 4.66667 9.11111 3.46889 9.11111 1.55556C9.11111 0.666667 8.07333 0 7.23333 0H1.85111C1.01111 0 0 0.373333 0 1.54C0 15.9911 12.0244 28 26.46 28C27.5644 28 28 27.02 28 26.1644V20.7978C28 19.9578 27.3 19.2578 26.46 19.2578Z" fill="#3D7FFF"/>
</svg>
