<svg width="132" height="129" viewBox="0 0 132 129" fill="none" xmlns="http://www.w3.org/2000/svg">
<g filter="url(#filter0_d_301_675)">
<path fill-rule="evenodd" clip-rule="evenodd" d="M61.9984 0.311197C61.7398 0.47557 62.599 0.793185 64.0389 1.06516C67.227 1.66774 73.3523 3.71481 76.9711 5.38674C86.198 9.65044 94.3717 17.9693 98.2487 27.0425C102.643 37.3272 103.004 47.0126 99.4801 60.1254C97.6818 66.8172 96.1291 69.9982 91.4107 76.6581C88.0267 81.4342 85.8396 85.7914 85.2876 88.857C84.6888 92.1808 84.8075 96.8601 85.6519 103.202C86.9337 112.834 89.231 126.037 89.5664 125.701C89.6287 125.638 90.1748 123.252 90.78 120.396C92.0711 114.306 92.809 112.194 94.0463 111.051C94.9345 110.23 95.1096 110.216 104.134 110.237C112.511 110.257 113.497 110.192 115.348 109.499C118.733 108.233 121.621 104.641 121.621 101.699C121.621 101.083 121.12 99.0144 120.508 97.1035C118.913 92.1252 118.998 91.3879 121.489 88.6021C122.173 87.8362 122.734 86.9654 122.734 86.6671C122.734 86.3687 122.233 85.5539 121.621 84.8567C121.008 84.1595 120.508 83.4501 120.508 83.2809C120.508 83.1113 121.212 82.255 122.073 81.3774L123.639 79.7819L122.466 77.4673C120.924 74.4251 120.22 71.7955 120.732 70.9844C120.944 70.6475 122.324 70.0037 123.798 69.5533C127.102 68.5444 129.144 67.2335 129.772 65.7181C130.69 63.4997 129.066 60.7398 120.709 50.3197C114.265 42.2847 114.018 41.8892 114.531 40.4172C115.167 38.5913 115.019 34.1985 114.215 31.0528C110.377 16.0454 97.6013 4.49289 81.3664 1.34864C75.6507 0.241436 63.1604 -0.427557 61.9984 0.311197Z" fill="url(#paint0_linear_301_675)"/>
</g>
<path d="M5.73321 44.0475C5.07512 44.0475 4.4526 43.9541 3.86566 43.7674C3.28761 43.5806 2.78071 43.296 2.34495 42.9136C1.90918 42.5223 1.56235 42.0243 1.30446 41.4196C1.05545 40.8149 0.930946 40.0901 0.930946 39.2452V38.9785C0.930946 38.1781 1.05545 37.4889 1.30446 36.9108C1.56235 36.3239 1.90918 35.8392 2.34495 35.4568C2.78071 35.0655 3.28761 34.7765 3.86566 34.5897C4.4526 34.403 5.07512 34.3096 5.73321 34.3096C6.39129 34.3096 7.00936 34.403 7.58741 34.5897C8.17436 34.7765 8.68571 35.0655 9.12147 35.4568C9.55723 35.8392 9.89961 36.3239 10.1486 36.9108C10.4065 37.4889 10.5355 38.1781 10.5355 38.9785V39.2452C10.5355 40.0723 10.4065 40.7882 10.1486 41.3929C9.89961 41.9977 9.55723 42.5001 9.12147 42.9003C8.68571 43.2916 8.17436 43.5806 7.58741 43.7674C7.00936 43.9541 6.39129 44.0475 5.73321 44.0475ZM5.73321 41.1928C6.10672 41.1928 6.40019 41.0461 6.61362 40.7526C6.82706 40.4503 6.93377 39.9478 6.93377 39.2452V38.9785C6.93377 38.3382 6.82706 37.8757 6.61362 37.5911C6.40019 37.3066 6.10672 37.1643 5.73321 37.1643C5.3597 37.1643 5.06623 37.3066 4.85279 37.5911C4.63936 37.8757 4.53264 38.3382 4.53264 38.9785V39.2452C4.53264 39.9478 4.63936 40.4503 4.85279 40.7526C5.06623 41.0461 5.3597 41.1928 5.73321 41.1928ZM15.8015 44.0475C15.1345 44.0475 14.512 43.963 13.9339 43.7941C13.3559 43.6162 12.8534 43.3361 12.4266 42.9537C12.0086 42.5713 11.6751 42.0777 11.4261 41.473C11.186 40.8593 11.0659 40.1168 11.0659 39.2452V38.9785C11.0659 38.1514 11.1904 37.4444 11.4394 36.8575C11.6884 36.2705 12.0264 35.7903 12.4532 35.4168C12.889 35.0344 13.3915 34.7542 13.9606 34.5764C14.5387 34.3985 15.1523 34.3096 15.8015 34.3096C16.3884 34.3096 16.9442 34.3807 17.4689 34.523C18.0025 34.6564 18.4739 34.8832 18.8829 35.2033C19.292 35.5146 19.6211 35.9192 19.8701 36.4172C20.1191 36.9153 20.2525 37.5244 20.2703 38.2448H16.802C16.7575 37.8179 16.6374 37.5333 16.4418 37.391C16.2461 37.2399 16.0327 37.1643 15.8015 37.1643C15.6503 37.1643 15.508 37.1954 15.3746 37.2576C15.2412 37.3199 15.1212 37.4222 15.0144 37.5645C14.9077 37.7067 14.8232 37.8935 14.761 38.1247C14.6987 38.3559 14.6676 38.6405 14.6676 38.9785V39.2452C14.6676 39.9211 14.7699 40.4147 14.9744 40.7259C15.1879 41.0372 15.4636 41.1928 15.8015 41.1928C16.0416 41.1928 16.255 41.1217 16.4418 40.9794C16.6374 40.8371 16.7575 40.5481 16.802 40.1123H20.2703C20.2525 40.8504 20.1191 41.473 19.8701 41.9799C19.63 42.4779 19.3054 42.8825 18.8963 43.1938C18.4961 43.4961 18.0292 43.714 17.4956 43.8474C16.962 43.9808 16.3973 44.0475 15.8015 44.0475ZM25.5342 44.0475C24.8761 44.0475 24.2536 43.9541 23.6666 43.7674C23.0886 43.5806 22.5817 43.296 22.1459 42.9136C21.7102 42.5223 21.3633 42.0243 21.1054 41.4196C20.8564 40.8149 20.7319 40.0901 20.7319 39.2452V38.9785C20.7319 38.1781 20.8564 37.4889 21.1054 36.9108C21.3633 36.3239 21.7102 35.8392 22.1459 35.4568C22.5817 35.0655 23.0886 34.7765 23.6666 34.5897C24.2536 34.403 24.8761 34.3096 25.5342 34.3096C26.1923 34.3096 26.8104 34.403 27.3884 34.5897C27.9753 34.7765 28.4867 35.0655 28.9225 35.4568C29.3582 35.8392 29.7006 36.3239 29.9496 36.9108C30.2075 37.4889 30.3365 38.1781 30.3365 38.9785V39.2452C30.3365 40.0723 30.2075 40.7882 29.9496 41.3929C29.7006 41.9977 29.3582 42.5001 28.9225 42.9003C28.4867 43.2916 27.9753 43.5806 27.3884 43.7674C26.8104 43.9541 26.1923 44.0475 25.5342 44.0475ZM25.5342 41.1928C25.9077 41.1928 26.2012 41.0461 26.4146 40.7526C26.628 40.4503 26.7348 39.9478 26.7348 39.2452V38.9785C26.7348 38.3382 26.628 37.8757 26.4146 37.5911C26.2012 37.3066 25.9077 37.1643 25.5342 37.1643C25.1607 37.1643 24.8672 37.3066 24.6538 37.5911C24.4403 37.8757 24.3336 38.3382 24.3336 38.9785V39.2452C24.3336 39.9478 24.4403 40.4503 24.6538 40.7526C24.8672 41.0461 25.1607 41.1928 25.5342 41.1928ZM35.4024 44.0475C34.5842 44.0475 33.8861 43.9497 33.3081 43.754C32.7389 43.5495 32.272 43.2694 31.9074 42.9136C31.5517 42.5579 31.2893 42.131 31.1204 41.633C30.9514 41.135 30.8669 40.5837 30.8669 39.9789H34.0684C34.0684 40.1568 34.0773 40.3435 34.0951 40.5392C34.1129 40.7259 34.1618 40.8994 34.2418 41.0594C34.3308 41.2106 34.4642 41.3396 34.642 41.4463C34.8288 41.5441 35.0822 41.593 35.4024 41.593C35.687 41.593 35.9137 41.5397 36.0827 41.4329C36.2517 41.3173 36.3362 41.1306 36.3362 40.8727C36.3362 40.7482 36.3184 40.6415 36.2828 40.5525C36.2472 40.4636 36.1805 40.3925 36.0827 40.3391C35.9938 40.2857 35.8648 40.2502 35.6959 40.2324C35.5358 40.2057 35.3268 40.1924 35.0689 40.1924H34.5353V38.0313H35.0689C35.4335 38.0313 35.6914 37.9824 35.8426 37.8846C35.9938 37.7779 36.0694 37.6089 36.0694 37.3777C36.0694 36.9686 35.8248 36.7641 35.3357 36.7641C35.0689 36.7641 34.8555 36.8041 34.6954 36.8841C34.5353 36.9642 34.4108 37.0709 34.3219 37.2043C34.2418 37.3377 34.1885 37.4889 34.1618 37.6578C34.144 37.8268 34.1351 38.0002 34.1351 38.1781H30.9336C30.9336 36.8619 31.3116 35.8881 32.0675 35.2567C32.8234 34.6253 33.9128 34.3096 35.3357 34.3096C36.0116 34.3096 36.6163 34.3629 37.1499 34.4697C37.6923 34.5764 38.1503 34.7409 38.5238 34.9632C38.8974 35.1856 39.1819 35.4657 39.3776 35.8036C39.5732 36.1416 39.6711 36.5418 39.6711 37.0042C39.6711 37.4844 39.5421 37.8979 39.2842 38.2448C39.0263 38.5827 38.6706 38.8273 38.217 38.9785C39.3642 39.2452 39.9378 39.9878 39.9378 41.2062C39.9378 42.0866 39.5466 42.7802 38.764 43.2871C37.9903 43.7941 36.8697 44.0475 35.4024 44.0475ZM40.7346 34.5097H44.2562V37.6979H46.2839V34.5097H49.8055V43.8474H46.2839V40.5258H44.2562V43.8474H40.7346V34.5097ZM56.3788 42.5935H53.951L53.6175 43.8474H50.3626L53.6709 34.5097H57.1925L60.5008 43.8474H56.7123L56.3788 42.5935ZM54.6313 40.0323H55.6852L55.1649 37.7112L54.6313 40.0323ZM61.0566 34.5097H64.5783V37.6979H66.6059V34.5097H70.1276V43.8474H66.6059V40.5258H64.5783V43.8474H61.0566V34.5097ZM71.1916 34.5097H74.7133V38.5116L77.0077 34.5097H80.2626V43.8474H76.7409V39.8455L74.4465 43.8474H71.1916V34.5097ZM81.3266 34.5097H88.6634V37.0709H84.8483V38.0313H88.2632V40.1924H84.8483V41.2862H88.6634V43.8474H81.3266V34.5097ZM50.1597 59.4072C49.4839 59.4072 48.8702 59.3138 48.3189 59.1271C47.7675 58.9403 47.2917 58.6691 46.8915 58.3134C46.5002 57.9576 46.1934 57.5263 45.9711 57.0194C45.7577 56.5125 45.651 55.9434 45.651 55.3119V55.0452C45.651 54.4137 45.7577 53.8446 45.9711 53.3377C46.1934 52.8308 46.5002 52.4039 46.8915 52.0571C47.2917 51.7014 47.7675 51.4301 48.3189 51.2434C48.8702 51.0477 49.4839 50.9499 50.1597 50.9499V50.2429H53.6814V50.9499C54.3573 50.9499 54.9709 51.0477 55.5223 51.2434C56.0736 51.4301 56.545 51.7014 56.9363 52.0571C57.3365 52.4039 57.6433 52.8308 57.8567 53.3377C58.079 53.8446 58.1902 54.4137 58.1902 55.0452V55.3119C58.1902 55.9434 58.079 56.5125 57.8567 57.0194C57.6433 57.5263 57.3365 57.9576 56.9363 58.3134C56.545 58.6691 56.0736 58.9403 55.5223 59.1271C54.9709 59.3138 54.3573 59.4072 53.6814 59.4072V60.1142H50.1597V59.4072ZM54.5885 55.0452C54.5885 54.7428 54.5574 54.5027 54.4951 54.3248C54.4418 54.1381 54.3662 54.0002 54.2683 53.9113C54.1794 53.8135 54.0727 53.7512 53.9482 53.7245C53.8237 53.689 53.6903 53.6712 53.548 53.6712V56.6859C53.717 56.6859 53.8637 56.6726 53.9882 56.6459C54.1216 56.6103 54.2328 56.5481 54.3217 56.4592C54.4106 56.3613 54.4773 56.2235 54.5218 56.0456C54.5663 55.8589 54.5885 55.6143 54.5885 55.3119V55.0452ZM49.2526 55.3119C49.2526 55.6143 49.2749 55.8589 49.3193 56.0456C49.3638 56.2235 49.4261 56.3613 49.5061 56.4592C49.595 56.5481 49.7017 56.6103 49.8263 56.6459C49.9596 56.6726 50.1153 56.6859 50.2931 56.6859V53.6712C50.1331 53.6712 49.9908 53.689 49.8663 53.7245C49.7418 53.7512 49.6306 53.8135 49.5328 53.9113C49.4438 54.0002 49.3727 54.1381 49.3193 54.3248C49.2749 54.5027 49.2526 54.7428 49.2526 55.0452V55.3119ZM63.4557 60.0475C62.7976 60.0475 62.1751 59.9541 61.5881 59.7674C61.0101 59.5806 60.5032 59.296 60.0674 58.9136C59.6317 58.5223 59.2848 58.0243 59.0269 57.4196C58.7779 56.8149 58.6534 56.0901 58.6534 55.2452V54.9785C58.6534 54.1781 58.7779 53.4889 59.0269 52.9108C59.2848 52.3239 59.6317 51.8392 60.0674 51.4568C60.5032 51.0655 61.0101 50.7765 61.5881 50.5897C62.1751 50.403 62.7976 50.3096 63.4557 50.3096C64.1138 50.3096 64.7318 50.403 65.3099 50.5897C65.8968 50.7765 66.4082 51.0655 66.8439 51.4568C67.2797 51.8392 67.6221 52.3239 67.8711 52.9108C68.129 53.4889 68.2579 54.1781 68.2579 54.9785V55.2452C68.2579 56.0723 68.129 56.7882 67.8711 57.3929C67.6221 57.9977 67.2797 58.5001 66.8439 58.9003C66.4082 59.2916 65.8968 59.5806 65.3099 59.7674C64.7318 59.9541 64.1138 60.0475 63.4557 60.0475ZM63.4557 57.1928C63.8292 57.1928 64.1227 57.0461 64.3361 56.7526C64.5495 56.4503 64.6563 55.9478 64.6563 55.2452V54.9785C64.6563 54.3382 64.5495 53.8757 64.3361 53.5911C64.1227 53.3066 63.8292 53.1643 63.4557 53.1643C63.0822 53.1643 62.7887 53.3066 62.5753 53.5911C62.3618 53.8757 62.2551 54.3382 62.2551 54.9785V55.2452C62.2551 55.9478 62.3618 56.4503 62.5753 56.7526C62.7887 57.0461 63.0822 57.1928 63.4557 57.1928ZM69.0552 50.5097H72.5769V53.6979H74.6045V50.5097H78.1261V59.8474H74.6045V56.5258H72.5769V59.8474H69.0552V50.5097ZM78.79 57.0194H79.5904C79.8216 56.4858 79.9994 55.9122 80.124 55.2986C80.2573 54.685 80.324 53.978 80.324 53.1776V50.5097H87.8609V57.0194H88.7947V61.5816H85.8066V59.8474H81.7781V61.5816H78.79V57.0194ZM84.3393 57.0194V53.3377H83.3121V54.3115C83.3121 54.7917 83.281 55.2719 83.2187 55.7522C83.1565 56.2235 83.0631 56.6459 82.9386 57.0194H84.3393Z" fill="#3D7FFF"/>
<defs>
<filter id="filter0_d_301_675" x="60.4705" y="0" width="71.012" height="128.671" filterUnits="userSpaceOnUse" color-interpolation-filters="sRGB">
<feFlood flood-opacity="0" result="BackgroundImageFix"/>
<feColorMatrix in="SourceAlpha" type="matrix" values="0 0 0 0 0 0 0 0 0 0 0 0 0 0 0 0 0 0 127 0" result="hardAlpha"/>
<feOffset dy="1.48218"/>
<feGaussianBlur stdDeviation="0.74109"/>
<feComposite in2="hardAlpha" operator="out"/>
<feColorMatrix type="matrix" values="0 0 0 0 0 0 0 0 0 0 0 0 0 0 0 0 0 0 0.25 0"/>
<feBlend mode="normal" in2="BackgroundImageFix" result="effect1_dropShadow_301_675"/>
<feBlend mode="normal" in="SourceGraphic" in2="effect1_dropShadow_301_675" result="shape"/>
</filter>
<linearGradient id="paint0_linear_301_675" x1="58.8555" y1="-0.27827" x2="58.8555" y2="125.707" gradientUnits="userSpaceOnUse">
<stop stop-color="#3E81EB"/>
<stop offset="0.982292" stop-color="#B1CCFF"/>
</linearGradient>
</defs>
</svg>
